# xmcd CD database file
#
# Track frame offsets:
#	150
#	13684
#	27597
#	42058
#	56125
#	68836
#	83285
#	95132
#	109775
#	123052
#	134950
#	146569
#	160601
#	174277
#	188373
#
# Disc length: 2702 seconds
#
# Revision: 5
# Processed by: cddbd v1.5.2PL0 Copyright (c) Steve Scherf et al.
# Submitted via: CDex 1.51
#
DISCID=c10a8c0f
DTITLE=John Lee Hooker - Blues Is The Healer  [CD 04-10]
DYEAR=2005
DGENRE=Blues
TTITLE0=Miss Rosie Mae
TTITLE1=Highway Blues
TTITLE2=Don't Go Baby
TTITLE3=The Numbers
TTITLE4=Weeping Willow Blues
TTITLE5=Forgive Me
TTITLE6=Howlin' Wolf
TTITLE7=Playing The Races
TTITLE8=Wednesday Evening
TTITLE9=Let Your Daddy Ride
TTITLE10=Queen Bee
TTITLE11=I'm In The Mood
TTITLE12=Tease Me Baby
TTITLE13=Turn Over A New Leaf
TTITLE14=Women In My Life
EXTD=10 CD Set YEAR: 2005
EXTT0=
EXTT1=
EXTT2=
EXTT3=
EXTT4=
EXTT5=
EXTT6=
EXTT7=
EXTT8=
EXTT9=
EXTT10=
EXTT11=
EXTT12=
EXTT13=
EXTT14=
PLAYORDER=
